<svg xmlns="http://www.w3.org/2000/svg" viewBox="0 0 171.58 72.01"><defs><style>.cls-1{fill:#cecece;}</style></defs><g id="Capa_2" data-name="Capa 2"><g id="Capa_1-2" data-name="Capa 1"><g id="DI0BVt.tif"><path class="cls-1" d="M125,36.55c0,6.24-.06,12.47,0,18.7,0,1.88-.55,2.6-2.44,2.45s-4.46.58-5.87-.35-1.63-3.4-2.26-5.24c-.9-2.61-1.67-5.27-2.52-7.9a3.67,3.67,0,0,0-.5-.78c-.16.32-.46.64-.47,1,0,3.78-.08,7.57,0,11.35,0,1.44-.47,2-1.91,1.94-7.46-.12-6,.85-6-5.52-.09-11.13,0-22.26,0-33.39,0-3.1,0-3.19,3.09-3.11,6.05.15,4.57-1.24,6.68,4.92,1,2.93,1.92,5.88,2.93,8.8a4.65,4.65,0,0,0,.9,1.21c.19-.44.55-.87.55-1.32,0-3.67,0-7.34,0-11,0-2.56,0-2.56,2.53-2.62,5.29-.14,5.29-.14,5.29,5.21Z"/><path class="cls-1" d="M149.78,36.42c0,5,0,10,0,15,0,4.47-1.81,6.2-6.27,6.22-3,0-6,0-9,0-4,0-5.84-1.93-5.87-6,0-5.57,0-11.14,0-16.72,0-4.56,0-9.13,0-13.7,0-4,1.64-5.56,5.73-5.57,3.35,0,6.69,0,10,0,3.49,0,5.37,1.89,5.4,5.33C149.82,26.16,149.78,31.29,149.78,36.42Zm-12.71.1c0,3.78,0,7.55,0,11.32a13.72,13.72,0,0,0,.11,2.32c.2,1.09.89,2,2.06,1.65a3.3,3.3,0,0,0,1.86-1.51,5.07,5.07,0,0,0,.19-2.29q0-11.32,0-22.64a4.92,4.92,0,0,0-.16-2.29c-.49-.85-1.31-1.94-2.14-2.09-1.33-.25-1.74,1.07-1.88,2.22a16.53,16.53,0,0,0,0,2Z"/><path class="cls-1" d="M65.73,36.69c0-6.12,0-12.25,0-18.37,0-2.61,0-2.65,2.47-2.66,4.23,0,8.47-.06,12.7,0,3.86.06,5.4,1.61,5.46,5.52.07,4.35.26,8.71-.08,13a42,42,0,0,0,0,7.09c.41,4.64.07,9.34.14,14,0,1.68-.49,2.3-2.27,2.34-5.71.14-5.71.22-5.71-5.48,0-2.79,0-5.57,0-8.35,0-.78.19-1.76-.2-2.28a3.93,3.93,0,0,0-2.29-1.4c-1.16-.21-1.42.81-1.43,1.77,0,3.56,0,7.12,0,10.69-.06,5.93.66,5-5.2,5.07H69c-3.6,0-3.2.14-3.21-3.29C65.72,48.49,65.73,42.59,65.73,36.69Zm8.52-9.27v4.31c0,1.07.11,2,1.53,2.05,1.23,0,2.44-.22,2.51-1.56a69.93,69.93,0,0,0,0-9.27c-.06-.69-1.48-1.68-2.37-1.8-1.39-.19-1.69,1.05-1.66,2.29S74.24,26.09,74.25,27.42Z"/><path class="cls-1" d="M23.55,36.72c0-5.46,0-10.91,0-16.37,0-3.18,1.47-4.6,4.7-4.65q6-.07,12,0c2.9,0,3.8.94,3.86,3.79s0,5.57,0,8.35c.05,1.67-.45,2.3-2.25,2.34-6,.14-6,.22-6.15-5.77,0-.22,0-.44,0-.67,0-1.48-.31-2.81-2.07-2.76-1.6,0-1.82,1.36-1.82,2.67V41.37c0,2.67,0,5.34,0,8,0,1.42.25,2.87,2.06,2.78,1.6-.08,2.23-1.29,2.25-2.8,0-2.12,0-4.24,0-6.35,0-1.29.55-1.67,1.8-1.78,6.14-.51,6.14-.54,6.14,5.46,0,2.45.06,4.9,0,7.35s-1.2,3.52-3.82,3.58q-6.34.13-12.69,0c-2.65-.06-4-1.48-4-4.22-.06-5.57,0-11.14,0-16.71Z"/><path class="cls-1" d="M17.69,57.68c-.56,0-1.12,0-1.67,0-1.26.09-1.75-.43-1.82-1.72-.09-1.66-.48-3.29-.67-4.94s-1.06-2-2.5-2-2.66.22-2.93,2a45.23,45.23,0,0,0-.75,4.59c-.11,1.78-1,2.14-2.61,2.17-4.82.11-5.22-.38-4.41-5.21.74-4.37,1.23-8.78,1.87-13.16C3,34.19,3.76,29,4.52,23.89c.33-2.18.74-4.36.9-6.56.11-1.56,1-1.72,2.19-1.69a58.46,58.46,0,0,0,6.35,0c1.85-.16,2.32.87,2.52,2.3.49,3.52.95,7,1.41,10.56q1.37,10.39,2.7,20.77c.25,2,.42,4,.64,6,.26,2.31.2,2.39-2.21,2.47ZM12.28,41c-.26-2.19-.49-4.39-.78-6.58A4.18,4.18,0,0,0,11,33.32c-.29.39-.78.75-.86,1.19C9.67,37,9.25,39.51,9,42a1.66,1.66,0,0,0,1,1.3C11.7,43.83,12.33,43.15,12.28,41Z"/><path class="cls-1" d="M155.7,15.65c.56,0,1.12,0,1.67,0,1.25-.1,1.65.46,1.85,1.7.52,3.16,1.28,6.28,1.95,9.42a5.29,5.29,0,0,0,.38.89c.32-.26.88-.48.94-.79.55-2.6,1-5.22,1.51-7.82.71-3.41.74-3.4,4.26-3.4s3.4,0,2.67,3.59c-1.09,5.42-2.43,10.84-2.9,16.32-.28,3.2.88,6.54,1.46,9.8.66,3.7,1.43,7.38,2.08,11.08.06.34-.38.81-.66,1.16-.1.12-.43,0-.65.07-5.25.52-5.29.52-6.38-4.81-.49-2.38-.82-4.8-1.3-7.18-.07-.36-.55-.63-.84-.94a3.63,3.63,0,0,0-.57.95c-.7,3.36-1.45,6.71-2,10.09-.22,1.4-.8,2-2.15,1.9-.33,0-.67,0-1,0-3.79-.1-4.56.88-3.52-4,1.15-5.4,1.88-10.89,2.75-16.35a7.23,7.23,0,0,0,0-2.32c-.91-5.34-1.84-10.67-2.84-16-.62-3.32-.68-3.31,2.59-3.33Z"/><path class="cls-1" d="M55,57.81,48.7,57.4c-.15-2.18-.43-4.36-.44-6.53,0-10.57,0-21.13,0-31.69,0-3.95-.22-3.5,3.67-3.53,2.78,0,5.56.12,8.33,0,2.14-.12,2,1.15,2,2.54s.33,2.64-1.85,2.7c-3.62.09-3.62.23-3.62,3.91,0,1.78.06,3.56,0,5.33-.07,1.58.63,2.26,2.17,2.18a3.71,3.71,0,0,1,1,0c.72.15,2,.27,2,.58a11.28,11.28,0,0,1,0,3.93c-.06.3-1.34.54-2.05.52-3.52-.09-3.14.59-3.14,3.16,0,3.23.05,6.45,0,9.68,0,1.65.46,2.55,2.26,2.35.55-.06,1.11,0,1.67,0,1.16-.08,1.48.5,1.57,1.59.29,3.33.12,3.56-3.26,3.58H55Z"/><path class="cls-1" d="M99,36.63c0,6.23,0,12.47,0,18.71,0,1.84-.5,2.57-2.43,2.52-7.57-.16-6.27.85-6.32-6-.08-10.7,0-21.39,0-32.08a9.32,9.32,0,0,1,.11-2.65c.17-.57.9-1,1.4-1.41.06-.06.22,0,.33,0C99,15,99,15,99,21.93Z"/><path class="cls-1" d="M2,0,1.8.82c.05-.14.1-.28.14-.43S2,.19,2,.09Z"/><path class="cls-1" d="M1.14,71.68l.09.25L.92,72A1.1,1.1,0,0,1,1,71.75S1.08,71.71,1.14,71.68Z"/></g></g></g></svg>