<svg xmlns="http://www.w3.org/2000/svg" viewBox="0 0 654.22 240.52"><defs><style>.cls-1{fill:#cecece;}</style></defs><g id="Capa_2" data-name="Capa 2"><g id="Capa_1-2" data-name="Capa 1"><g id="v7rjOQ.tif"><path class="cls-1" d="M326.69,0a11.14,11.14,0,0,0,1.39,3c4.49,4.94,5,10,1.21,15a4.54,4.54,0,0,1-2.85,1.69,58.75,58.75,0,0,1-8.9.08A4.43,4.43,0,0,1,314.82,18c-5.37-7.21-5.31-7.58.56-14.79.83-1,1.55-2.13,2.32-3.19Z"/><path class="cls-1" d="M46.11,0c.73,1.2,1.17,2.86,2.23,3.53,4.74,3,2.6,7.45,2.38,11.25-.17,3-4.2,5.29-7.9,5.29-3.23,0-6.79.85-9-2.52a8.7,8.7,0,0,1-1.83-3.8c-.28-4.2-1.11-8.69,3.52-11.5.5-.31.46-1.48.67-2.25Z"/><path class="cls-1" d="M20,201.06c.08.66.13,1.32.25,2,.29,1.57,1.26,2.39,2.82,2s1.86-1.57,1.44-3.09c-.15-.54.11-1.72.32-1.75,1.32-.2,1.65.52,1.43,1.78-.44,2.48.73,3.28,3.14,3a41.38,41.38,0,0,1,4.44.13,3.6,3.6,0,0,0,3.77-3.28c.34-2-.85-3.06-2.65-3.58-.62-.18-1.22-.38-1.83-.57.51-.39,1-.79,1.54-1.16a11,11,0,0,1,7.53-2c2.66.23,5.09-.85,7.59-1.37,5-1,9.31-4.27,14.67-3.94,2.27.14,4.61-.54,6.89-1,4.22-.78,8.41-1.76,12.65-2.39,1.37-.2,2.86.49,4.31.69s3.65,1,4.23.34c2.9-3.22,7.28-2.52,10.6-4.47a7.21,7.21,0,0,1,3.29-1c5.26-.15,10.53-.24,15.8-.18,2.52,0,4.77-.36,5.81-2.87.84-2,2.17-2.58,3.88-1.55,2.44,1.47,4.44.59,7,0a178.27,178.27,0,0,1,19-3.21c2.79-.37,5.66-.06,8.48-.28a40.67,40.67,0,0,0,5.29-1.08c1.6-.35,3.2-.71,4.8-1.1,2.86-.7,5.71-1.44,8.59-2.11a18.39,18.39,0,0,1,3.88-.64c7-.06,14,.11,21-.09,3.63-.11,7.45-.22,10.81-1.39,4.09-1.44,8.1-1.49,12.25-1.41,3.62.06,7.37.8,10.57-1.73a1.36,1.36,0,0,1,1-.27c8.22,1.21,16.31-1.08,24.61-.62,10.9.6,21.89-.61,32.85-1,1.48-.05,3,.15,4.44.13a34.44,34.44,0,0,0,4.43-.27c3.26-.44,6.5-1.33,9.76-1.41,7.65-.18,15.3.13,23,0,4.3-.06,8.59-.58,12.89-.83a29.15,29.15,0,0,1,6,0c10.93,1.64,21.87.63,32.82.31,5.46-.16,10.94.41,16.41.38a33.34,33.34,0,0,0,8.87-1c8.76-2.49,17.29-2,26,.48,3.27.92,6.91.72,10.38.74,8.28,0,16.57-.1,24.86-.11,5.16,0,10.32,0,15.47.15,2,.06,3.91.57,5.88.73a15.81,15.81,0,0,0,4.71,0c3.62-.83,7.08-1.62,10.45.93,1,.73,2.51.76,3.8,1,.81.17,1.81-.11,2.46.27,6.83,3.9,14.3,1.56,21.45,2.18,2.47.22,4.87,0,7.15,1.51a5.06,5.06,0,0,0,6.1-.19c2.12-1.64,4.24-1.49,6.56-.53,2.74,1.15,5.54,2.17,8.32,3.23a6.08,6.08,0,0,0,1.9.56c7.26.24,14.52.47,21.78.62a30.05,30.05,0,0,1,10.59,1.86c5.43,2.08,11,4.41,17.18,3.76,3.75-.38,7.66-.46,11.08,1.88a7.47,7.47,0,0,0,2.41.55c4.13.94,8.3,1.76,12.38,2.89,3,.84,3.7,3.8,1.62,6.21a16.82,16.82,0,0,1-2.14,2.08c-1,.86-2,.94-3-.29-4.2-5.44-9.31-5.68-15.14-2.77a40.21,40.21,0,0,1-6.41,2,1.69,1.69,0,0,1-1,0c-5.42-1.86-10.9-3.57-16.21-5.72-2.15-.87-4.37-1.78-6.12-.44-4.36,3.34-7.93.87-10.52-1.82-3.59-3.69-6.75-4.65-11.4-2.24-2.66,1.38-5.65.92-8.58-.57a12.92,12.92,0,0,0-11.9.06c-2.86,1.48-4.56,1.16-6.44-1-.54-.61-1.05-1.27-1.65-1.83-2.19-2.08-5.15-1.76-6.61.86-.73,1.3-1,2.91-2.88,2.95-1,0-1.9,0-2.85-.07a11.6,11.6,0,0,1,1.73-1.89c1.55-1.1,1-2-.3-2.48a64,64,0,0,0-8.16-2.13c-2.23-.41-1.87,1-1.48,2.5a33.11,33.11,0,0,1,.6,3.74c-.89-.85-1.86-1.64-2.68-2.56-2.09-2.33-3.14-2.47-6-1-2.45,1.26-5,2.38-7.48,3.48a1.52,1.52,0,0,1-1.36-.19c-2.17-2.1-4.31-2.16-6.63-.22-.22.18-1.19-.22-1.54-.6a9,9,0,0,1-1.23-2.14c-1.95-4-2.72-4.47-6.74-4.25-2.1.12-3.43.77-3.69,3.13-.1.9-1.05,2.42-1.62,2.42a13.52,13.52,0,0,1-5.26-1c-.93-.41,2-5.22,3.41-5.48a38.76,38.76,0,0,0,6.31-1.28,4.08,4.08,0,0,0,2.07-2.81c.11-.82-.9-2.48-1.6-2.59-1-.17-2.27.62-3.31,1.2-.64.36-1.27,1.65-1.59,1.55-3.42-1.09-5.58,1.75-8.32,2.62-3.84,1.21-4.12,4.38-1,6.88.35.28.68.58,1,.86-.46.14-1,.5-1.36.38a10.4,10.4,0,0,1-3.55-1.52,4.9,4.9,0,0,0-5.52-1c-2.27,1-1.41,3-1.28,4.78a5.93,5.93,0,0,1-.66,2c-.59-.5-1.51-.9-1.71-1.53-.87-2.7-2.44-3.5-5.3-3.06-1.41.22-3.1-.72-4.53-1.42s-2.39-1.77-3.69-2.48c-2-1.11-3.82-1.25-4.6,1.58-.92,3.31-4.58,2.72-6.66,4.43a4.22,4.22,0,0,1-2-1.62c-2.09-4-3.22-4.47-6.36-1.65-1.44,1.29-2.38.81-3.42,0a23.61,23.61,0,0,1-1.91-2.27c-2-2.1-3.51-2.17-6.18-1-3.24,1.48-6.6,2.7-9.94,3.94-.19.07-1-.7-1-1.13-.35-3.21-1.19-3.82-3.82-2.29a28.4,28.4,0,0,0-3.35,2.9c-.33.28-.94.62-1.19.49a1.35,1.35,0,0,1-.57-1.19c.23-1.12.31-2.61,1.06-3.22,2.18-1.77,4.67-3.15,7-4.76a9,9,0,0,0,1.47-1.64,7,7,0,0,0-2.35-1.19c-.72,0-1.49.61-2.23,1-2.09,1-4,1.51-5.55-1-.47-.76-2-1.18-3.06-1.2-1.86,0-3.48-.1-5-1.56-.62-.59-2.24-.51-3.25-.21a3.19,3.19,0,0,0-1.78,2c-.13.48.67,1.53,1.3,1.84,2.35,1.18,4.8,2.17,7.23,3.19a6.27,6.27,0,0,0,1.45.23,5,5,0,0,1-1.08.33c-2.45.2-3.23,1.62-3.57,3.93-.26,1.75-1.81,1.33-2.52.23-1-1.62-1.15-4.13-3.68-4.2a70.48,70.48,0,0,0-9.41.41c-1.85.2-2,1.76-1.95,3.43.09,3.8,0,3.78-3.74,4.6a9.84,9.84,0,0,0-2.8,1c-2.05,1.17-3.83,2-5.34-.87-.31-.59-2-.46-3.08-.65-.46-.08-.93-.14-1.4-.21a14.39,14.39,0,0,1,1.1-1,43,43,0,0,0,3.94-3c1.55-1.5,1-3.41-1.21-3.47a21.85,21.85,0,0,0-6.79,1c-2.31.69-4.09,2.15-4.16,5,0,1.57-1.2,1.7-2.51,1.6a25.61,25.61,0,0,0-5.46-.1c-1,.14-2.53,1.09-2.59,1.77-.26,3-1,2.49-2.89,1-2.14-1.69-5.28-1.87-6.95-4.53-.29-.46-2.41-.43-3,.11-1.91,1.69-4.95,2.34-5.37,5.52-.06.52-.76,1.06-1.28,1.39-.36.23-.93.12-1.41.16a6.08,6.08,0,0,1,.31-1.13c1.48-3.13.12-5.45-3.3-5.3a3.25,3.25,0,0,0-2.13,1.63,8.4,8.4,0,0,0-.55,2.9c-.25,1.83-1.47,2.54-2.68,1.27-2.46-2.6-6.9-2.17-8.61-6.1-.42-1-3.25-1.26-5-1.25-2.07,0-2.76,1.65-1.73,3.52.39.71,1.23,1.21,1.49,1.94a5.69,5.69,0,0,1-.11,2.23c-.63-.07-1.54.11-1.86-.24-2.12-2.36-4.06-2.52-6.17,0a2.22,2.22,0,0,1-1.83.57c-5.76-1.31-11.88,1.58-17.51-1.52a2.57,2.57,0,0,0-2.34.21c-2.7,2.46-5.79.55-8.64.72-.86.06-2.57-2.13-2.65-3.37-.12-1.84,0-3.43-2.15-3.75s-4.68-.77-6.48,1.34a6.39,6.39,0,0,0-.8,1.26c-1.78,3.66-4.06,6.24-8.78,5.11-2.21-.53-3.62.45-4,3.13-.39,3-1.47,3.13-3.69.84-1-1-1.76-2.41-2.87-3.35a5.59,5.59,0,0,0-3.2-1.54c-1.71,0-4.44-.24-4.49,2-.05,1.78,1.58,3.7,2.72,5.38.33.5,1.56.34,2.32.64.29.11.41.66.6,1-.28.15-.58.45-.85.43-2.64-.23-5.28-.7-7.92-.69-1.56,0-3.55.28-4.6,1.25-3.68,3.42-7.55.56-11.29.63-.38,0-1.26-1.86-1.1-2.7.24-1.21,1.33-1.8,2.71-.93a5.3,5.3,0,0,0,2.24.9c2.17.15,3.52-1.83,2.31-3.63a19.35,19.35,0,0,0-4.11-4.27,2.55,2.55,0,0,0-2.4.57c-.84,2-1.65,3.6-4.27,2.9a1.51,1.51,0,0,0-1.26.66c-1.6,2.91-3.16,2.39-5.46.54-1.58-1.28-5.37,1.25-5.9,3.8-.32,1.59,0,3.31-.26,4.93-.12.71-1,1.3-1.47,2-.3-.67-.95-1.38-.86-2,.57-4.31.59-4.36-3.54-4.46-1.16,0-2.33,0-3.49.08a3.33,3.33,0,0,0-3.5,3.43,22.06,22.06,0,0,1-.27,3.47c-.36,1.51-1.64,2.47-3,1.71-6.23-3.52-11.07-.13-16,2.9a7.54,7.54,0,0,1-1.64,1.09,25.22,25.22,0,0,1-3.26.56c.21-1,.39-2.08.66-3.09.16-.63.64-1.22.65-1.83a2.28,2.28,0,0,0-.68-1.71c-.3-.21-1.2.17-1.64.52a9.64,9.64,0,0,0-1.42,1.73c-.13-.64-.26-1.27-.38-1.9-.59-3.12-.66-3.19-3.91-2.4-2.37.58-4.78.8-6.19,3.51-1.09,2.11-4.85,1.4-5.59,4.35a6.91,6.91,0,0,1-.85-1.18c-.41-.91-.73-1.86-1.08-2.8-1.42.64-3.05,1.05-4.19,2a3.18,3.18,0,0,0-.41,3,11.64,11.64,0,0,0,3,3.26,14.5,14.5,0,0,0,2.72,1.48,30.92,30.92,0,0,0-3.16,1.24c-2.45,1.29-4.79,2.78-7.29,3.95-.63.29-2.24-.08-2.43-.55-.73-1.77-1.91-3-3.71-2.72a11.36,11.36,0,0,0-4.94,1.81c-2.94,2.08-2.77,2.19-4.7-1a5.29,5.29,0,0,0-2.4-2c-.33-.14-1.68.9-1.65,1.35a7.9,7.9,0,0,0,1.09,3.1c.18.35.87.41,1.27.69.6.42,1.14.91,1.7,1.37-1,.23-2.54,1-3,.57a10.72,10.72,0,0,1-2.12-3.65c-.46-1-.45-2.32-1.09-3.16-2.88-3.73-6-3.42-8.9.94-1.06,1.61-1.42,3.38-3.77,4.18s-1.8,3.08.64,5.59c.43.44.8.94,1.19,1.41-.8.06-2.11.45-2.34.12-2.79-4.08-8.39-1.15-11.47-4.59-.3-.33-2.12.42-3,1-1.64,1-2.74,3.53-5.24,1.54-1.59,1.35-4,2.42-4.6,4.12-1.16,3.17-2.52,3.11-5.53,2.73-2.43-.31-5.2,1.56-7.71,2.68s-4.59,3.33-7.58,1.13c-.42-.31-1.69.08-2.24.54-1.43,1.19-2,1.17-1.69-.85s-.78-2.77-2.51-2.87-4-.19-4.59,2c-.55,1.93-.69,3.31-3.45,2.76-1.79-.35-2.24,1.34-1.26,4.12,1.07,3,1.05,3-1.91,2.58-2.46-.36-4.95-.52-7.42-.81a15.58,15.58,0,0,1-3.36-.62c-3.3-1.21-3.4-1.28-4.21,1.88-.44,1.71-.77,2.25-1.91.48a1.69,1.69,0,0,0-.69-.69c-1.37-.5-3.26.28-3.71-2.21-.41-2.19,1.5-2.23,2.24-3.32.37-.54.39-2,0-2.25-3.5-2.4-1.08-6.2-2.25-9.14a2.56,2.56,0,0,1,.7-2.22c3.59-3.31,4.1-7.19,2.6-11.63-.25-.73.25-1.7.4-2.56a8.23,8.23,0,0,1,2.53,1.13c.82.77,1.12,2.32,2,2.72a5.25,5.25,0,0,0,4,.23c1.47-.8.88-2.3-.31-3.28-1.65-1.36-.76-2.27.54-3s2.67-1.34,4-2Zm103.26-4.35a12.83,12.83,0,0,0,0-3.26c-.39-1.33-.84-3.24-1.79-3.64s-2.76.49-3.88,1.25c-1.76,1.2-3.21,2.84-4.89,4.18-2.35,1.87-2.57,2.87-.76,5.31,1.23,1.67,3.11,2.88,2.88,5.46,0,.57,1.59,1.72,2.55,1.84a3.39,3.39,0,0,0,2.84-1.26C121.74,203.39,124.23,200.4,123.27,196.71ZM15.5,221.93c-4.06,0-5.52,1.24-5.46,4.62.06,3.19,3.14,6.92,5.84,7.07s6.22-2.72,6.26-5.13C22.18,225.24,18.83,221.93,15.5,221.93Zm425.62-61c-5.66-.05-5.88.25-4.48,5.88.12.48.08,1,.22,1.47a2.84,2.84,0,0,0,.63,1.33c1.93,1.81,4.27,1.54,6.58,1.13,2-.35,2.52-1.83,2.72-3.65C447.32,162.13,446.34,161,441.12,161Zm-181.85,5.25-.36-.71c-1.62.22-3.25.48-4.88.66s-3.07.64-2.74,2.65,1.78,2.13,3.41,1.94c3.24-.38,6.47-1.14,9.73.06a2.37,2.37,0,0,0,1.91-.24c1-.7,2.31-1.57,2.44-2.52a4.21,4.21,0,0,0-1.48-3.31,4,4,0,0,0-5.06-.18A28.53,28.53,0,0,1,259.27,166.22Zm-203.72,42a25.49,25.49,0,0,0,3.78-.36c2.45-.58,3.3-2.44,1.83-4.41-.8-1.08-2.4-2.41-3.47-2.27a20.21,20.21,0,0,0-7.36,2.38c-2,1.16-1.25,3.82,1.11,4.36A25.12,25.12,0,0,0,55.55,208.19Zm22.34-1.77c-1.84-2.19-3.36-4.27-5.17-6-1.49-1.48-3.17-1.56-4.67.32s-1.16,3.76.4,4.82a29.05,29.05,0,0,0,7.12,3.1C75.94,208.74,76.77,207.51,77.89,206.42Zm273.38-43.13v-.14a33.19,33.19,0,0,0-5.33.67c-1.89.55-2.39,3.28-.78,3.73,3.05.86,6.13,2.46,9.49,1.18a2.89,2.89,0,0,0,1.93-3.52c-.25-1.6-1.38-2.11-2.84-2.08C352.91,163.15,352.09,163.23,351.27,163.29ZM462.43,161a16.67,16.67,0,0,0-2.33,3.48c-.32.87-.22,2.5.36,3a14,14,0,0,0,5.07,2.79c1.2.32,2.7-.52,4.06-.84a11.55,11.55,0,0,0-1.12-3,38.38,38.38,0,0,0-3.83-4.33A8.6,8.6,0,0,0,462.43,161Zm-219,12.59a14.72,14.72,0,0,0-1.39-3.48c-1.35-1.78-3.32-1.42-5-.62s-1.16,2.15-.16,3.26c1.23,1.38.8,2.34-.64,3.17a4.1,4.1,0,0,0-1.54,1.21,8.67,8.67,0,0,0-.52,2.26c.89,0,2.07.43,2.61,0,1.92-1.49,3.08-3.91,5.83-4.39C243,175,243.2,174,243.42,173.62ZM513.83,169c-.71-1.34-1.2-3.44-2.07-3.62-1.3-.26-3.1.56-4.26,1.47a4.68,4.68,0,0,0-1.53,3.4,4.07,4.07,0,0,0,1.82,3.09,5,5,0,0,0,4.12-.27C512.91,172.38,513.15,170.6,513.83,169Zm-235.53.52v-.14c-1-.08-2-.22-2.93-.21-1.46,0-2.84.56-2.45,2.22a3.15,3.15,0,0,0,2.39,1.75,35.55,35.55,0,0,0,6.75-.41,2.25,2.25,0,0,0,1.49-1.55,2.12,2.12,0,0,0-1.34-1.59A21.21,21.21,0,0,0,278.3,169.55Zm-211,40.58c-.93,1.68-1.88,2.66-1.94,3.69-.1,1.57,1.14,2.29,2.69,2.05A2.12,2.12,0,0,0,70,213C69.7,212.15,68.64,211.52,67.32,210.13Zm270-46.33c-.44-.72-.63-1.22-.77-1.21-1.52.17-3.27,0-4.48.75s-.2,4,.76,3.58C334.45,166.25,335.82,164.87,337.28,163.8ZM100.13,192.19c-2.1-.95-3.11-1.7-4.18-1.81-1.34-.14-2.94.49-2.46,2.1.25.83,1.9,1.57,3,1.71C97.27,194.29,98.18,193.32,100.13,192.19ZM530.8,170.75c-1.86-1.05-3-2-4.22-2.23-.45-.08-1.22,1.5-1.85,2.32a11.54,11.54,0,0,0,3.1,1.55C528.47,172.51,529.29,171.64,530.8,170.75Zm-369,13.84c-1.59-1.05-2.45-2.07-3.27-2s-1.6,1.13-2.39,1.75c.72.67,1.4,1.77,2.2,1.88S160.12,185.41,161.8,184.59ZM142.29,187c-1.39-.8-2.25-1.66-3.11-1.66-.61,0-1.22,1.16-1.83,1.81.76.66,1.44,1.65,2.31,1.85C140.19,189.09,141,188,142.29,187Zm179.93-21.26c-1.18-.68-2-1.53-2.65-1.41a2.4,2.4,0,0,0-1.52,1.86,2.46,2.46,0,0,0,1.88,1.54C320.59,167.68,321.21,166.64,322.22,165.71ZM176.16,179.42c-1-.85-1.63-1.84-2.27-1.84a1.74,1.74,0,0,0-.21,3.46C174.31,181.12,175.06,180.18,176.16,179.42Zm130.11-13.25c-1-.85-1.72-1.81-2.35-1.79s-1.31,1-2,1.51c.57.65,1.07,1.71,1.73,1.82S305.1,166.92,306.27,166.17ZM36,213.58c-.81.9-1.77,1.52-1.69,2a6.84,6.84,0,0,0,1.42,2.22c.65-.55,1.77-1,1.84-1.66S36.73,214.67,36,213.58Zm71.13-21.39c-1-.68-1.65-1.47-2.19-1.4s-1,1-1.55,1.49c.54.52,1,1.38,1.62,1.43S106.16,192.93,107.13,192.19Zm87.79-12.6c-.74.92-1.59,1.55-1.5,2a2.25,2.25,0,0,0,1.5,1.44c.53.07,1.16-.7,1.74-1.1Zm-164.5,37c-.61,1.06-1.33,1.75-1.24,2.3s1,1,1.51,1.56c.47-.57,1.28-1.13,1.3-1.72S31.2,217.59,30.42,216.6Zm-8.34-6c-1-.55-1.61-1.19-1.93-1.06-.63.27-1.07,1-1.59,1.48.44.37,1,1.11,1.3,1C20.51,211.91,21.06,211.3,22.08,210.58Zm296.76-34.06c-.61-.66-1-1.37-1.41-1.43s-1,.5-1.52.79l1.15,1.82Zm23.72-5.42c-.66-.53-1.17-1.11-1.32-1a5.35,5.35,0,0,0-1.17,1.16c.32.29.68.86.94.82C341.49,172,341.9,171.53,342.56,171.1Z"/><path class="cls-1" d="M433.79,79.69c0,12.94,0,25.88,0,38.82,0,6.87-2,8.52-8.92,9A10.6,10.6,0,0,1,415,123.1c-8.68-11.14-17.29-22.32-26-33.4-4.59-5.82-9.34-11.5-14.14-17.14-.73-.86-2.66-1.89-3.13-1.57a5.47,5.47,0,0,0-2.07,3.49,76.75,76.75,0,0,0-.13,8.45c0,11.61-.18,23.23.1,34.83.1,4.22-1.58,7.5-4.9,9a13.13,13.13,0,0,1-11.1-.29,6.29,6.29,0,0,1-3.59-5.6c-.11-2.65-.33-5.3-.33-8q0-34.83,0-69.67a18.54,18.54,0,0,0,0-3c-.9-5.7,3-8.3,7.07-10.58a5,5,0,0,1,4.21,0,32.48,32.48,0,0,1,7.8,6c8.19,9.65,16.1,19.54,24.1,29.37,5.18,6.37,10.36,12.75,15.47,19.19,1.07,1.36,2,2.82,4,2.25,2.3-.66,2.23-2.66,2.23-4.48,0-12.44,0-24.88,0-37.32,0-2.49,0-5,.05-7.46,0-2.13.43-4,2.87-4.63a1.51,1.51,0,0,0,.45-.2c7-4.38,6.94-4.24,13.42.36,2.38,1.69,2.42,3.79,2.44,6.07.06,8.63,0,17.25.05,25.88Z"/><path class="cls-1" d="M544.56,79.17a79.33,79.33,0,0,1-.07,8.45,44.9,44.9,0,0,1-1.77,7c-.31,1.11-1,2.15-1.17,3.27-2.13,11.27-9.24,19-18.45,24.87-5.28,3.38-11.42,4.91-17.68,5.73-2.25.3-4.41,1.15-6.66,1.5a11.57,11.57,0,0,1-3.83-.27c-4.56-.86-9.18-1.53-13.62-2.82a37.09,37.09,0,0,1-9.86-4.37c-4.36-2.85-8.84-5.74-11.76-10.29-2.36-3.68-5.47-7-6.14-11.55a3.71,3.71,0,0,0-.33-1.44c-4.74-7.41-2.52-15.72-3.06-23.67-.15-2.14.14-4.3.15-6.46,0-2.85.13-5.62,2.18-7.94a5,5,0,0,0,.91-2.29c1.69-8.36,7-14.36,13.3-19.51,4.17-3.4,8.59-6.66,14.28-7.24a2.14,2.14,0,0,0,.95-.27c7.79-5.1,16.48-2.16,24.77-2.7,1.33-.08,2.76,1,4.12,1.51A17.93,17.93,0,0,0,514,32.16c9.84,1.92,16.87,8.12,22.31,15.82,2.28,3.23,5.28,6.83,5.15,11.46a2.39,2.39,0,0,0,.29,1.44C545.76,66.5,544.36,73,544.56,79.17Zm-47.41,32.6c3.24-.48,6.81-.27,9.66-1.59,3.81-1.76,7.7-4,9.78-8.05.89-1.74,1.34-3.77,2.5-5.29,4.23-5.55,4.34-12.42,4.08-18.46s-.59-12.61-4.3-18.51c-5.18-8.25-12-12.9-21.59-13.1a21.93,21.93,0,0,0-16.7,7.28c-2.67,2.85-5.46,6-6.78,9.58a42.19,42.19,0,0,0-2.23,13.57c-.11,4.24,1.28,8.5,1.37,12.76.09,4.83,2.69,8.66,5.19,12C482.65,108,488.55,112.69,497.15,111.77Z"/><path class="cls-1" d="M69.16,79.06c0-10.61-.15-21.22.09-31.82a44.71,44.71,0,0,1,1.87-10.18,6.22,6.22,0,0,1,5-4.43,6.22,6.22,0,0,1,1.47-.26q19.41.26,38.83.54c6.17,2.87,11.91,5.8,14,13.39a29,29,0,0,1,0,16.5c-1.06,3.54-3.29,5.57-5.87,7.62s-2.67,3.1-.24,4.94a51.29,51.29,0,0,0,5.92,3.6c5.79,3.24,9.52,8.1,10.31,14.64.49,4.07.82,8.57-.42,12.34-2.46,7.46-6,14.59-14.29,17.59-1.07.39-2,1.17-3.07,1.55-2,.72-4,1.79-6,1.81-11.13.12-22.28-.4-33.39,0-11.44.43-13.26-4.53-14-14-.61-8.41-.11-16.9-.1-25.35V79.06ZM90.37,98.55h-.06V102c0,1.32-.09,2.65,0,4,.36,3.6,1.44,4.64,5,4.73a77.21,77.21,0,0,0,10.43-.06c5.76-.64,10.74-2.62,13.08-8.72,2-5.14-1.28-12.15-6.36-14.22-5.59-2.28-11.32-2-17.07-1.91-3.49.06-4.75,1.31-5,4.82C90.2,93.25,90.37,95.9,90.37,98.55Zm-.08-40.34h0c0,1.82-.08,3.65,0,5.46.2,3.82,1,4.67,4.75,4.8q4,.14,8,0c4.39-.11,10.11-5.38,10.53-9.67a3.62,3.62,0,0,0-.19-2c-2.21-4-5-7.51-9.9-8.18a67.49,67.49,0,0,0-9.44-.17c-2.42,0-3.63,1.41-3.74,3.73C90.22,54.25,90.29,56.23,90.29,58.21Z"/><path class="cls-1" d="M228,80.39q0-18.39,0-36.8a29.13,29.13,0,0,1,.29-5,6.81,6.81,0,0,1,6.31-6,39.63,39.63,0,0,1,5.95-.45c11.13.12,22.26.24,33.38.53,4.33.11,7.73,2.9,10.94,5.25s5.7,5.92,8.48,9a2.37,2.37,0,0,1,.67,1.31c.12,5.26,2.66,10.32,1.16,15.71a30,30,0,0,0-.52,3.93c-.78,5.75-2.93,10.45-8.47,13.46-2.44,1.33-4.6,2.81-7.43,3.53-3.72.94-4.45,5.81-1.55,8.32,7.52,6.49,13.67,14.26,19.75,22,1.28,1.62,1.22,5.43.2,7.44-1.5,2.93-4.06,5.67-8.32,4.84-1.94-.38-4-.06-5.92-.58a8.44,8.44,0,0,1-4-2.53c-8.2-9.84-16.27-19.77-24.34-29.71-.61-.75-.71-1.93-1.37-2.58s-1.92-1.58-2.79-1.46a3.46,3.46,0,0,0-2.33,2.1,18.34,18.34,0,0,0-.34,4.93c0,6.63.17,13.26.1,19.89-.07,6.43-3.72,9.88-10.16,9.91-8.6,0-9.62-.94-9.66-9.74-.06-12.44,0-24.87,0-37.31Zm19.79-19.18h.1c0,3.14-.17,6.29,0,9.42.24,3.55,1.54,4.63,5.11,4.48,4.93-.19,9.73-.39,14.56-2.31,5.18-2.06,8.89-8.22,8.22-12.15-1-6.06-5.89-11.56-11.39-12-4.12-.3-8.29-.24-12.42-.13-3.25.08-4,.93-4.19,4.23C247.64,55.59,247.75,58.4,247.75,61.21Z"/><path class="cls-1" d="M634.74,118.63c-.38,8.05-1.5,8.81-9.7,8.89a11.26,11.26,0,0,1-9.32-4.61c-4-4.81-7.63-9.86-11.28-14.9-2.7-3.71-5.15-7.6-7.78-11.36-1.48-2.11-3.33-2.35-4.88-.41-2.65,3.34-5,6.89-7.59,10.3-4.7,6.27-9.32,12.61-14.24,18.71-2.16,2.67-11.8,3-14.51.93a2.84,2.84,0,0,1-1.09-1.58c-.74-5.34-1.84-10.32,2.46-15.37,6.89-8.1,12.75-17.07,19.1-25.63A65.74,65.74,0,0,1,580.72,78c1.1-1.18,1.22-2.11.19-3.44Q573.49,65,566.22,55.4c-2.77-3.67-5.64-7.3-8-11.21-2.09-3.41,0-9,2.89-11.88,3.59-3.62,6.74-3.2,10.57-.69,2.35,1.53,4.51,2.79,6.05,5.47,2.18,3.79,5.38,7,8.09,10.47,2,2.57,3.81,5.3,5.9,7.79,1.94,2.31,3.38,2.07,5-.33,3.07-4.46,6.24-8.85,9.34-13.29a22.59,22.59,0,0,0,1.77-2.95c2.35-4.76,6.55-7.2,11.3-8.82a6,6,0,0,1,3.88.13c4,1.61,6,5.1,7.36,8.87a4.42,4.42,0,0,1-.31,3.38c-2.63,4.32-5.3,8.63-8.27,12.72-4.81,6.62-9.91,13-14.75,19.63a3.21,3.21,0,0,0,.05,3c6,7.77,12.14,15.42,18.2,23.14a115.25,115.25,0,0,1,8.23,11.06C634.63,113.72,634.38,116.36,634.74,118.63Z"/><path class="cls-1" d="M156.78,79.41q0-19.15,0-38.31c0-2.56.24-5,2.74-6.51,1.36-.8,2.8-1.9,4.27-2,5.13-.35,10.29-.39,15.44-.43,7.48-.06,15,.24,22.44-.08,5-.22,7.49,2.59,9.71,6.2a4.46,4.46,0,0,1,.54,2.36c-.11,3-5.08,7.86-8.15,7.88-6.65.06-13.3,0-20,0-6.92,0-7.56.71-7.61,7.8,0,2.82-.14,5.65,0,8.46.2,3.53,1.36,4.79,4.89,5a87.67,87.67,0,0,0,11.46.09c4.27-.28,8.19.85,12.19,2,2.23.65,3.45,2,3.59,4.19.22,3.56,1.33,7.5-2.67,9.84a11.07,11.07,0,0,1-4.92,1.7c-6,.19-12,0-17.95.08-5.51.06-6.46,1-6.58,6.34-.08,3.15-.14,6.3,0,9.45.15,3.84,1.11,5.17,5,5.58,4.28.46,8.63.2,12.94.42a61.9,61.9,0,0,1,10.83,1c6.88,1.6,8.4,7.52,4.1,13a8.16,8.16,0,0,1-7.23,3.32c-11.47,0-22.95-.19-34.42.08-4,.09-6.59-1.93-9.21-4.12-.84-.69-1.17-2.34-1.22-3.58-.2-5-.24-9.94-.26-14.92,0-8.29,0-16.58,0-24.88Z"/><path class="cls-1" d="M332.12,79.84c0,12.25.17,24.51-.12,36.75-.07,3-1.56,6-2.66,8.9a3.28,3.28,0,0,1-2.47,1.35c-3.29.25-6.59.32-9.89.3a2.74,2.74,0,0,1-2.13-1c-1.54-3.56-4.24-6.48-4.21-10.89.21-24,.05-48,.13-72.06,0-5.93,3.38-10.19,8.1-13.27,3.39-2.22,9.81.4,11.1,4.52a34.43,34.43,0,0,1,1.76,9.66c.21,11.93.09,23.86.09,35.79Z"/><path class="cls-1" d="M31.82,79.17c0-13.11,0-26.22,0-39.33a10.25,10.25,0,0,1,7.48-10.23c.93-.29,2.17-.66,2.9-.29A32.71,32.71,0,0,1,49.68,34C50.77,35,51,37.34,51,39.07q.12,40.08,0,80.16c0,5.78-2.42,8-8.23,8.19-.66,0-1.33,0-2,0-5.38.46-9.29-2.47-9.12-8.94C32.06,105.4,31.82,92.29,31.82,79.17Z"/><path class="cls-1" d="M253.51,187.37l-2.42-1.06a26.18,26.18,0,0,1,1.83-2c.35-.31.93-.33,1.34-.59,1.07-.68,2.1-1.41,3.14-2.12,0,.53.14,1.25-.14,1.53C256,184.46,257.66,188.45,253.51,187.37Z"/><path class="cls-1" d="M457.36,182.21c-.91-1.09-1.63-1.92-2.27-2.79a4.3,4.3,0,0,1,.85-.8,18.4,18.4,0,0,1,2.25,2.16C458.28,180.88,457.8,181.47,457.36,182.21Z"/><path class="cls-1" d="M362.38,179l-2.94,1.46c-.1-.29-.36-.78-.3-.82.87-.63,1.78-1.19,2.69-1.76Z"/><path class="cls-1" d="M201,194.4c-.84.29-1.54.66-1.63.54a19.08,19.08,0,0,1-1.38-2.25c.36-.2,1-.63,1.05-.55A27.29,27.29,0,0,1,201,194.4Z"/><path class="cls-1" d="M572.06,183.7l-.7.6c-.73-.79-1.43-1.6-2.12-2.42a1.7,1.7,0,0,1,.31-.29C570.37,182.26,571.17,182.94,572.06,183.7Z"/><path class="cls-1" d="M387.43,172.93c.56.7,1.21,1.5,1.87,2.3-.24.12-.6.4-.68.34-.82-.7-1.6-1.45-2.39-2.19Z"/><path class="cls-1" d="M144.25,201.28a6.73,6.73,0,0,1-1.64-.4c-.35-.2-.56-.64-.83-1a6.46,6.46,0,0,1,1.29-.18,4.43,4.43,0,0,1,1.38.38,13.77,13.77,0,0,1,1.37.82Z"/><path class="cls-1" d="M2.61,231.82c-.95.21-1.52.48-1.65.35a8.74,8.74,0,0,1-1-1.55c.3-.1.71-.36.89-.25A12.18,12.18,0,0,1,2.61,231.82Z"/><path class="cls-1" d="M2.08,216.76A4.6,4.6,0,0,1,2.61,218c0,.15-.6.34-.92.52a6.92,6.92,0,0,1-.34-1.32C1.34,217.11,1.76,217,2.08,216.76Z"/><path class="cls-1" d="M605.19,186.12c.31.42.55.74.78,1.07-.33.2-.73.63-1,.56s-.63-.58-.93-.9Z"/><path class="cls-1" d="M4.52,213l.63.49-.78.86c-.17-.24-.48-.5-.45-.72S4.31,213.19,4.52,213Z"/><path class="cls-1" d="M115.13,213.26l-.27-.3.49-.26c.05.13.15.27.13.39S115.27,213.2,115.13,213.26Z"/><path class="cls-1" d="M429.17,176.25l-.22.4a7,7,0,0,1-.61-.61s.15-.22.24-.34Z"/><path class="cls-1" d="M139.22,205.62a2.22,2.22,0,0,1-.79.33c-.26,0-.52-.22-.78-.34a2.15,2.15,0,0,1,.79-.33C138.7,205.28,139,205.5,139.22,205.62Z"/><path class="cls-1" d="M20.13,201.19a6,6,0,0,1,.62-.62c.05,0,.23.08.35.12l-1.09.37Z"/><polygon class="cls-1" points="590.57 184.23 590.77 183.84 590.88 184.26 590.57 184.23"/><path class="cls-1" d="M585.07,181.4l-.27.08a1.09,1.09,0,0,1-.07-.34s.17-.06.26-.09Z"/><polygon class="cls-1" points="117.91 215.54 118.23 215.68 117.89 215.76 117.91 215.54"/><polygon class="cls-1" points="550.68 179.09 550.92 179.09 550.8 179.42 550.68 179.09"/><path class="cls-1" d="M399,178.8c-.12,0-.25.14-.36.12s-.2-.13-.3-.21Z"/><path class="cls-1" d="M96.94,220.84l-.35-.28c.14-.08.28-.21.41-.2s.23.17.35.26Z"/><polygon class="cls-1" points="395.2 179.31 394.92 179.3 395.07 178.99 395.2 179.31"/><path class="cls-1" d="M500,175.74c.06.13.17.27.16.39s-.16.21-.25.32c-.06-.13-.18-.27-.16-.39S499.88,175.85,500,175.74Z"/><polygon class="cls-1" points="478.8 178.76 479.05 178.67 479.01 178.91 478.8 178.76"/></g></g></g></svg>