<svg xmlns="http://www.w3.org/2000/svg" viewBox="0 0 570.51 217.87"><defs><style>.cls-1{fill:#cecece;}</style></defs><g id="Capa_2" data-name="Capa 2"><g id="Capa_1-2" data-name="Capa 1"><g id="WrpEkj.tif"><path class="cls-1" d="M0,127.42c1.24-3.56,2.43-7.13,3.74-10.66C8.15,104.88,16,95.65,26.2,88.34,42.52,76.69,61,72.43,80.48,75,104.42,78.2,123.62,89.73,135,112c4.92,9.66,7.11,20.12,5.63,30.82A58.48,58.48,0,0,1,128,172.56c-9.71,11.76-21.86,19.71-36.68,23.21-26.86,6.36-51.48,2.06-72.4-16.81-8.76-7.91-15-17.61-17.36-29.47A26.89,26.89,0,0,0,0,145.34ZM69.12,78.65a51.5,51.5,0,0,0-15.87,2.42,55.57,55.57,0,0,0-30.13,23.22c-10.09,15.56-12.41,32.5-6.24,50.26C24.27,175.78,39.45,188.3,61.17,193c11.43,2.46,22.64.35,32.89-4.8,25-12.58,38.1-38.91,31-67C119,97.47,96.7,77.87,69.12,78.65Z"/><path class="cls-1" d="M101.82,0c0,5,.08,9.93,0,14.9-.07,3.29,1,5.55,4.13,7.17,5.15,2.63,10.08,5.69,15,8.68a23.25,23.25,0,0,1,3.13,2.77,24.77,24.77,0,0,1-3,2.39c-5,3-9.94,5.94-15,8.71a7.5,7.5,0,0,0-4.35,7.65c.17,3.13,0,6.29,0,9.43,0,2-1,3-3,3.07-.83,0-1.66,0-2.49,0q-25.89,0-51.8,0c-5.46,0-5.52-.11-5.56-5.58a36.83,36.83,0,0,1,0-5.46c.7-5-1.72-8.06-6-10.26-4.85-2.51-9.56-5.26-14.3-8-2.82-1.6-2.77-2.83.14-4.49,5.3-3,10.52-6.24,16-9,3.16-1.61,4.21-3.87,4.15-7.16-.08-5,0-9.93,0-14.9ZM70.46,6.46a34.5,34.5,0,0,0-4.37,1.75Q47.91,18.49,29.79,28.88c-7.58,4.33-7.67,4.62,0,9.1C42.28,45.25,54.89,52.25,67.4,59.46c2.37,1.36,4.32.92,6.5-.34,12.49-7.22,25-14.34,37.52-21.61,1.9-1.11,3.43-2.85,5.13-4.29a43.36,43.36,0,0,0-4.93-3.91q-16.92-10-34-19.68A71.87,71.87,0,0,0,70.46,6.46Z"/><path class="cls-1" d="M294.63,137.06q0-24.87,0-49.76c0-6.11-.13-6.17-6.09-5.92a47.08,47.08,0,0,1-8-.17c-1-.14-2.71-1.74-2.57-2.22a5.85,5.85,0,0,1,2.53-3.07c.89-.51,2.27-.18,3.43-.18,17.14,0,34.28-.24,51.41.09,9.41.19,19,.48,27.46,5.69A26.31,26.31,0,0,1,374.6,96.31c2,6.33,2.49,12.44.41,19-2.79,8.83-8.77,14-17,17.5-7,3-14.32,2.39-21.61,2.56-2.22.05-5.38-.08-6.41,1.21-1.75,2.22,1.29,4.09,2.51,5.84,10.16,14.54,20.29,29.12,30.83,43.38,4.71,6.37,9.78,12.54,16.29,17.36,6.34,4.69,13.28,5.6,20.77,4.35.49-.08,1-.42,1.44-.36a20.41,20.41,0,0,1,2.63.7,17.53,17.53,0,0,1-2.28,1.26c-15.62,5.79-28.43-.56-40.62-9.44-9.52-6.93-17-15.93-23.88-25.23-8.79-11.83-16.77-24.27-25.17-36.4a12.69,12.69,0,0,0-2.8-2.22c-.42,1.16-1.21,2.33-1.21,3.5q-.12,24.13,0,48.27c0,4.43.93,5,5.41,4.82a25.63,25.63,0,0,1,6.44.18,3.66,3.66,0,0,1,2.27,2.67c.05.8-1.32,2-2.32,2.46s-2.28.23-3.44.23H254.48c-1.16,0-2.49.25-3.44-.22s-2.24-1.76-2.19-2.62,1.34-2,2.32-2.65c.57-.37,1.61,0,2.44,0,3.82.11,4.85-1.12,3.55-4.71C252.49,174.8,247.6,162,243.07,149c-1.29-3.7-3.44-4.78-7.06-4.7-6.81.17-13.65.31-20.45,0-3.78-.2-5.48,1.57-6.67,4.6q-6,15.24-12,30.46c-1.16,2.93-2.45,5.8-3.56,8.74-1.3,3.43-.39,4.44,3.22,4.39,10.93-.14,19.19-5.8,26.72-12.81,3.5-3.26,6.51-7.06,9.77-10.6a5.58,5.58,0,0,1,1.14-.74,3.7,3.7,0,0,1,.13,1.38c-2.72,8.51-5.51,17-8.21,25.52-.87,2.73-3.05,2.72-5.24,2.72-8.65,0-17.3,0-26-.05-5.18,0-5.32-.11-7.17,4.88-.91,2.44-1.55,5-2.31,7.46,2.55.32,5.11.79,7.68.93,2.28.12,3.93.59,3.81,3.34-.12,2.53-1.46,3.4-3.89,3.38-7.65-.08-15.3,0-23-.08-1.07,0-2.55-.28-3.12-1a4.45,4.45,0,0,1-.84-3.59c.32-.9,1.87-1.73,3-1.9a48,48,0,0,1,6.47-.15c2,0,3.43-.69,4-2.88.65-2.38,1.67-4.66,2.55-7,.8-2.11,0-3.19-2.17-3.3-1.33-.06-2.66-.05-4-.05H138.55c-1.16,0-2.33,0-3.49,0-1.77-.07-2.84-.88-2.69-2.79.12-1.72,1-2.79,2.82-2.81,3.49,0,7,0,10.48-.08s4-.57,4.13-4.09c.1-3.15,0-6.3,0-9.45V89.1c0-1.33-.06-2.66,0-4,.1-2.5-1-3.69-3.56-3.65-2.83,0-5.67.13-8.48-.06-2.08-.15-5.07,1.18-5.59-2.4-.34-2.37,1.24-3.26,5.45-3.27,8.65,0,17.3,0,26,0h11.48c.83,0,1.67,0,2.5,0,2,0,3.77.37,3.9,2.8s-1.74,2.89-3.69,2.89c-3.33,0-6.66,0-10-.12-4.29-.15-4.8.39-4.42,4.8.16,2,.24,4,.24,6q0,47,0,94.06c0,1.33,0,2.66.07,4,.16,1.76,1.1,2.57,3,2.5,4.65-.2,9.3-.25,14-.34s5.61-.62,7.4-5.07c2-5.07,4-10.15,6-15.23q6.22-15.68,12.46-31.36,11.87-29.75,23.72-59.48c.07-.16.09-.33.17-.47.49-.81,1-1.61,1.5-2.42a13.37,13.37,0,0,1,1.88,2.63c2,4.92,3.81,9.88,5.68,14.84q13.31,35.31,26.58,70.62c2.62,7,5.14,14,7.66,20.94,1.92,5.29,3.45,6,9,5a36,36,0,0,1,7.84-.18c3.24.13,4.38-.76,4.38-3.81V137.07Zm13.85-31.76c0,6.63,0,13.27,0,19.9.05,4.67.59,5.25,5.11,5.27,9,.06,18,.16,26.94,0,9.35-.21,16.34-4.54,19.79-13.29A30.42,30.42,0,0,0,362,100.52a27.64,27.64,0,0,0-1.91-7.15c-3.73-7.73-10.24-11.56-18.69-11.82-9.31-.28-18.62-.11-27.93-.26-4.36-.07-4.93.27-5,4.61C308.43,92.37,308.48,98.83,308.48,105.3Zm-82.32,34h0c2.5,0,5,0,7.49,0,5.1-.08,5.71-.74,4.12-5.54-2.51-7.54-5.26-15-7.91-22.49-.44-1.25-.83-2.52-1.27-3.76-.75-2.09-1.8-1.59-2.79-.24a13,13,0,0,0-1.41,2.62c-1.38,3.37-2.71,6.77-4.06,10.15-2,5.08-4.14,10.12-6,15.26-1.13,3.12-.55,3.82,2.84,4C220.17,139.38,223.17,139.28,226.16,139.28Z"/><path class="cls-1" d="M397.16,136.28q0-24.63,0-49.25c0-5.44-.12-5.52-5.61-5.57-3,0-6,0-9-.07-1.56,0-3.11-.43-3.2-2.38s1.06-3.07,3-3.2c1.33-.08,2.66-.07,4-.07,13.64,0,27.28-.11,40.91,0a167.81,167.81,0,0,1,18.89,1.08c9.59,1.2,18,5,23.22,13.62,7.75,12.8,5.15,33.22-10.6,40.76a41,41,0,0,1-17.3,4c-2.83,0-5.66-.07-8.48,0-3.43.13-4,.85-2.48,3.9q3.25,6.71,7,13.16c5.72,9.91,11.7,19.67,19.43,28.2a101.16,101.16,0,0,0,8.19,8c2,1.78,3,1.55,4-1q5.51-13,10.76-26.16,9.69-24.18,19.27-48.4,6.33-15.92,12.72-31.79a13.27,13.27,0,0,1,1.57-2.31c.75.77,1.84,1.41,2.18,2.32C521.92,97.81,528,114.4,534.23,131c5.51,14.69,11.14,29.34,16.71,44,1.7,4.48,3.36,9,5.1,13.46,1.43,3.69,2.43,4.27,6.28,4.11a22.07,22.07,0,0,1,5.92.12,3.76,3.76,0,0,1,2.27,2.74c0,.75-1.63,1.59-2.55,2.37-.11.09-.32.07-.49.07q-17.46,0-34.92.05c-1.71,0-2.95-.7-2.81-2.66a2.77,2.77,0,0,1,2.88-2.83c1.15,0,2.31.31,3.46.31,2.65,0,3.68-1.1,3-3.74-.93-3.51-2.22-6.93-3.46-10.35-3.54-9.79-7.16-19.55-10.69-29.34-1.35-3.75-2.59-4.87-6.46-4.91-7.15-.06-14.3,0-21.45,0-3,0-5,.87-6.11,3.9-3.46,9.12-7.17,18.14-10.78,27.2-1.77,4.46-3.51,8.93-5.27,13.39-1.7,4.29-1.08,5.58,3.48,6.19a36.8,36.8,0,0,0,19.05-2.56c1.38-.56,2.71-1.26,4.11-1.77a27.82,27.82,0,0,1,3-.77,18,18,0,0,1-1.74,2.23c-7.71,7.41-16.89,10.17-27.43,8.43-4.72-.77-5-.6-6.81,4.15-2.43,6.48-2.43,6.48,4.48,6.46a6.3,6.3,0,0,1,2.47.12c1.22.59,3.06,1.36,3.26,2.33a3.42,3.42,0,0,1-2.87,4,16.79,16.79,0,0,1-3.48.18H453.92a21.24,21.24,0,0,1-3-.11c-2.16-.31-3.42-1.85-3.07-3.77.19-1,1.82-2.23,3-2.57a9.91,9.91,0,0,1,4.93,0c2.94.7,4.34-.62,5.3-3.09.91-2.31,1.85-4.61,2.91-6.85.88-1.89.4-3.15-1.4-4.09-2.06-1.07-4.11-2.16-6.11-3.33-14.77-8.56-24.48-21.62-32.33-36.29-3.28-6.13-6.34-12.38-9.53-18.56a9.89,9.89,0,0,0-1.92-2.87c-.3-.27-1.86.18-2.09.67a7,7,0,0,0-.26,2.92q0,23.38,0,46.77c0,5.22.39,5.53,5.75,5.62,1.83,0,3.76-.28,5.45.22a4.69,4.69,0,0,1,2.83,2.81c.43,1.88-1.35,2.43-2.91,2.54-2,.14-4,.1-6,.1H387.6c-1.17,0-2.45.27-3.46-.15a4.53,4.53,0,0,1-2.59-2.36,2.39,2.39,0,0,1,2.45-3c2.48-.15,5-.09,7.47-.13,5.24-.1,5.67-.48,5.68-5.73Q397.18,161.41,397.16,136.28Zm30.23-54.81h0c-4.32,0-8.65-.08-13,0-3.61.09-4,.43-4,4.1q-.09,20.14,0,40.28c0,4,.61,4.55,4.71,4.59,7.31.08,14.63,0,21.94,0,8.76-.05,15.29-3.94,19.41-11.62,2.71-5,4.31-10.51,3.41-16.27-1.87-12-7.26-20.69-23-21.09C433.71,81.4,430.55,81.47,427.39,81.47Zm80.24,57.79v0c2.81,0,5.63.06,8.44,0,4-.11,4.81-1.08,3.57-4.82-2-6.09-4.2-12.13-6.35-18.19-1-2.77-2-5.55-3.14-8.26-.33-.77-1.29-1.27-2-1.9a9.63,9.63,0,0,0-1.37,1.87c-3.67,9-7.34,18-10.9,27-1.1,2.81-.27,4.07,2.78,4.25S504.65,139.26,507.63,139.26Z"/><path class="cls-1" d="M428.3,33.24c0-2.81,0-5.61,0-8.42s1.33-3.95,4-3.9a61.4,61.4,0,0,1,7.44.22c4.31.63,6.3,3.9,4.73,7.94-1,2.65-1.37,4.74.38,7.37,2.31,3.48.39,7.83-3.91,8.77-3.17.7-6.57.52-9.86.45-2,0-2.71-1.68-2.73-3.5,0-3,0-6,0-8.93Zm8,10.57c3.92-.05,6-1.81,6-5-.07-2.84-2.73-4.94-6.25-4.91s-5.6,1.78-5.48,4.85C430.71,42.48,432.3,43.86,436.33,43.81Zm-.27-11.87c3.77-.05,6.12-1.7,6.06-4.27s-3.06-4.8-6.42-4.78-5.15,1.62-5.17,4.54C430.5,30.68,432.12,32,436.06,31.94Z"/><path class="cls-1" d="M379.52,33.26c0-3,0-6,0-8.93,0-2.2,1.11-3.38,3.37-3.38s4.32-.1,6.47,0c4.56.19,6.71,1.47,7.26,5.89a60.07,60.07,0,0,1-.16,13.73c-.35,3.32-2.87,5.14-6.29,5.23-12.7.33-10.53.38-10.7-9.54,0-1,0-2,0-3Zm3.73-.22h-.05c0,2,0,4,0,6,.07,4.43,1.57,5.75,5.83,4.53a7.94,7.94,0,0,0,4.27-3c2.68-4.19,2.71-8.78.64-13.28a7.28,7.28,0,0,0-7.21-4.35c-2.2,0-3.49.85-3.49,3.19Z"/><path class="cls-1" d="M245.63,33.47c0,1.65.09,3.31,0,5a8.65,8.65,0,0,1-7.84,8.24,8.78,8.78,0,0,1-9.3-5.72,19.23,19.23,0,0,1-.14-14.49c1.67-4.38,5.63-6.86,9.56-6.19,5.19.89,7.61,3.77,7.75,9.23,0,1.32,0,2.65,0,4Zm-3,.13a49.15,49.15,0,0,0,0-5.43A5.88,5.88,0,0,0,237,22.86a5.82,5.82,0,0,0-6.3,5.07,60.6,60.6,0,0,0,0,10.86,5.74,5.74,0,0,0,6.3,5,5.85,5.85,0,0,0,5.58-5.29A42.81,42.81,0,0,0,242.6,33.6Z"/><path class="cls-1" d="M340.89,33.09A77.14,77.14,0,0,1,338.83,41a8.61,8.61,0,0,1-8.83,5.7,9.39,9.39,0,0,1-8.48-8.3,69.88,69.88,0,0,1,0-9.92c.29-4.22,3.57-7.29,8.14-8.06a8,8,0,0,1,8.82,4.83A67.15,67.15,0,0,1,340.89,33.09Zm-16.38.1h0c0,1.81-.13,3.63,0,5.42a5.5,5.5,0,0,0,4.17,5A5.71,5.71,0,0,0,335,41.8c3.36-3.73,3.31-13.41-.12-17a5.64,5.64,0,0,0-6.3-1.63,5.57,5.57,0,0,0-4,5.1C324.44,29.9,324.51,31.55,324.51,33.19Z"/><path class="cls-1" d="M296.53,33.38c0-3.31-.06-6.63.05-9.94,0-.7.67-2,1.05-2a3.2,3.2,0,0,1,2.43,1c2.18,3.31,4.17,6.74,6.21,10.14a17.18,17.18,0,0,0,1.78,3,12.63,12.63,0,0,0,2.74,1.77c.51-1,1.42-1.88,1.47-2.85.2-3.64.08-7.29.16-10.93,0-.53.5-1.05.77-1.58.37.47,1.05.94,1.05,1.41.06,6.46.11,12.92-.05,19.38,0,.89-1.16,1.76-1.78,2.64a9.55,9.55,0,0,1-2.51-2C307.83,40.3,306,37,304,33.73a11.2,11.2,0,0,0-1.63-2.48,17.08,17.08,0,0,0-2.78-1.82,10.57,10.57,0,0,0-1.09,3c-.15,3.64-.05,7.29-.15,10.93,0,.5-.61,1-.93,1.46-.31-.5-.87-1-.88-1.5-.08-3.31,0-6.63,0-9.94Z"/><path class="cls-1" d="M204.57,33.39c0-3,.05-6,0-8.94-.05-2.54,1.16-3.62,3.64-3.54,2.32.07,4.65,0,7,.1a6.59,6.59,0,0,1,5.93,4.63,6.25,6.25,0,0,1-1.51,6.86c-3.11,3.37-3,3.44-.92,7.49a26.87,26.87,0,0,1,1.77,4.09c.17.5-.26,1.2-.42,1.8-.56-.21-1.36-.26-1.64-.66-.94-1.35-1.71-2.82-2.53-4.25s-1.39-3.12-2.53-4.2c-.95-.89-2.75-1.68-3.86-1.38s-2.21,1.9-2.61,3.15c-.48,1.52-.14,3.28-.32,4.92-.06.5-.66.94-1,1.4-.3-.51-.85-1-.87-1.54-.08-3.3,0-6.62,0-9.93Zm7.13-.57c3.91,0,6.5-2,6.59-5.09.07-2.7-2.94-4.81-6.89-4.82s-4.79,1-4.75,5.12S207.56,32.81,211.7,32.82Z"/><path class="cls-1" d="M142.28,40.63c-2.55-.42-5.07.46-6.22,4-.16.49-1.2.69-1.84,1-.07-.63-.37-1.32-.18-1.86,2.32-6.66,4.65-13.33,7.14-19.94.4-1,1.61-1.77,2.44-2.64.88.92,2.15,1.69,2.56,2.78,1.94,5.07,3.65,10.24,5.42,15.37a15.33,15.33,0,0,1,.64,2.39c.23,1.34.76,3.8.51,3.88-2.22.76-1.94-1.52-2.59-2.6C148.44,40.13,145.64,40.81,142.28,40.63Zm1.43-2.82c3.29,0,4.12-1.13,2.85-4.72-.63-1.81.07-5.05-2.94-4.93s-2.77,3.25-3.27,5.36C139.6,36.71,140.55,37.8,143.71,37.81Z"/><path class="cls-1" d="M412.23,20.74c.76.72,1.58,1.13,1.81,1.75,2.38,6.46,4.68,13,7,19.46a2.79,2.79,0,0,1,.15,1.45,7.93,7.93,0,0,1-.79,1.6c-.41-.21-1.05-.33-1.19-.65C416.84,38.74,412,40.86,408,41c-1.07,0-2,2.19-3.11,3.3a7,7,0,0,1-1.56.92c-.28-.69-1-1.5-.79-2,2.26-6.69,4.6-13.37,7.07-20C410,22.3,411.17,21.71,412.23,20.74Zm.55,17.06c.31-.18,1.72-.47,2.12-1.26,1.37-2.72-.33-5.07-1.5-7.39-.32-.64-1.13-1-1.72-1.52-.84,1.52-1.68,3-2.5,4.56a7.42,7.42,0,0,0-.58,1.36C407.74,36.63,408.75,37.89,412.78,37.8Z"/><path class="cls-1" d="M504.3,20.21a53.18,53.18,0,0,1,5.2,1.5c.56.21.83,1.2,1.23,1.84a5.67,5.67,0,0,1-2,.51c-1.77-.27-3.49-1-5.26-1.11a3.9,3.9,0,0,0-4.2,3.47A3.61,3.61,0,0,0,502,31c1.9.58,3.78,1.31,5.72,1.73a6.15,6.15,0,0,1,5.28,5.2c.53,2.94-.92,5.18-3.13,6.86-3.4,2.59-10.44,2.37-13.63-.36a1.79,1.79,0,0,1-.41-1.68,1.9,1.9,0,0,1,1.65-.71c1.1.28,2.08,1,3.17,1.36,3.23,1.14,6.4.42,8.19-1.79s1.53-4.35-1.09-5.64a28.11,28.11,0,0,0-5.6-2c-4.9-1.22-6.6-3.4-6-8C496.67,22.53,499.72,20.2,504.3,20.21Z"/><path class="cls-1" d="M261.28,20.12a46.31,46.31,0,0,1,5,1.57c.65.28,1,1.31,1.47,2a7.1,7.1,0,0,1-2.22.38c-1.76-.29-3.47-1-5.23-1.15a4.13,4.13,0,0,0-4.49,3.19c-.66,2.34.76,3.84,2.72,4.68a37.42,37.42,0,0,0,6.12,2c3.1.72,4.28,3,4.77,5.69s-1.07,5.16-3.36,6.63c-4.43,2.83-8.6,1.33-12.74-.62-.43-.21-.59-1-.88-1.52.69-.3,1.39-.87,2.05-.82s1.44.88,2.22,1a27.69,27.69,0,0,0,5.86.55,4.12,4.12,0,0,0,3.94-3.82,3.68,3.68,0,0,0-2.6-4.28,43.64,43.64,0,0,0-5.2-1.66c-4.08-1-6.37-3.56-6.07-7.06C252.94,23.09,256.37,20.18,261.28,20.12Z"/><path class="cls-1" d="M361.51,45.58c-.79-.38-1.34-.49-1.62-.82-.86-1-1.54-2.13-2.42-3.1-1.15-1.27-2.42-2.42-3.64-3.62-1,1.16-2,2.4-3.08,3.47-1.38,1.33-1.25,4.47-4.39,3.75.63-1.72,1.25-3.45,1.88-5.18a1.64,1.64,0,0,1,.24-.43c3.88-4.53,3.73-9.06,0-13.59a1.08,1.08,0,0,1-.24-.43c-.37-1.39-2.93-2.47-.8-4,.29-.22,2.58,1.61,3.4,2.85,2.92,4.39,3.9,4.44,6.55-.09.08-.14.08-.36.2-.45,1.23-.89,2.48-1.77,3.73-2.66a18.15,18.15,0,0,1-1.05,3.83c-4.85,9.29-5.48,5.75.16,15.8a22.22,22.22,0,0,1,1.62,3C362.19,44.31,361.73,44.93,361.51,45.58Z"/><path class="cls-1" d="M160.22,33.8c.61,2.35.82,4.9,1.9,7,1.73,3.39,4.64,4,7.94,2.08.57-.33,1-1,1.58-1.17a6.77,6.77,0,0,1,2.22.17c-.11.73,0,1.71-.37,2.17-3.56,4-11.28,3.23-13.8-1.51a19,19,0,0,1-.12-18.11c2.28-4.5,9.77-5.54,13.41-2,.55.53.51,1.69.74,2.56-.74,0-1.76.34-2.17,0-2.19-1.92-4.7-3-7.27-1.45-2.92,1.78-3.87,4.82-3.59,8.21.06.66,0,1.33,0,2Z"/><path class="cls-1" d="M181.7,33.42V24c0-2,1-3.06,3-3.06,3.15,0,6.3-.05,9.45,0,.52,0,1,.55,1.56.84-.46.34-.9.94-1.39,1-1.81.14-3.64,0-5.46.13-3.33.19-5,1.84-5,4.82s1.34,3.92,4.83,4.29c1.75.19,4-1.07,5.1,1.49-1.68.17-3.35.35-5,.49-3.15.26-4.88,2-4.94,5.07s1.44,4.51,5,4.72c2,.11,4,.07,5.95.19.35,0,.66.55,1,.84-.32.3-.64.84-1,.84-3.63.06-7.28.15-10.91,0-1.93-.09-2.17-1.75-2.19-3.31,0-3,0-6,0-8.93Z"/><path class="cls-1" d="M481.85,45.83c-8.33,0-7.74.49-7.75-7.9,0-4.47,0-8.95,0-13.42,0-2.49,1-3.67,3.57-3.6,3.15.09,6.31,0,9.46.13.35,0,.7.52,1,.8-.31.31-.6.86-.93.88-1.82.13-3.65.11-5.47.19-3.62.15-5.24,1.54-5.3,4.48-.06,3.11,1.35,4.41,5,4.6a2.77,2.77,0,0,1,.5,0l4,1a26.73,26.73,0,0,1-4,.87c-4.49.31-6.08,2.45-5.18,6.84.45,2.19,1.61,3.11,3.77,3.05,1.83,0,3.67-.07,5.48.06a7.14,7.14,0,0,1,2.09.85c-.62.37-1.21,1-1.86,1.06A41.82,41.82,0,0,1,481.85,45.83Z"/><path class="cls-1" d="M455.13,32.22c0,2.64,0,5.29,0,7.93,0,2.43,1.33,3.6,3.73,3.63s4.64,0,6.94.14c.61,0,1.17.8,1.76,1.22a5.91,5.91,0,0,1-2,.85c-3.47,0-6.95,0-10.42-.22-3.1-.19-3.66-1-3.59-4,.14-5.89.11-11.78.3-17.66,0-.92.83-1.82,1.28-2.72.63.81,1.74,1.59,1.81,2.46.23,2.78.08,5.6.08,8.4Z"/><path class="cls-1" d="M285.56,33.84c0-3.46-.09-6.94.07-10.39,0-.73,1-1.42,1.49-2.12.43.63,1.23,1.25,1.24,1.88q.12,10.4,0,20.8c0,.64-.79,1.27-1.22,1.91-.51-.72-1.43-1.43-1.47-2.18-.16-3.29-.07-6.6-.07-9.9Z"/><path class="cls-1" d="M369.31,32.91c0-3-.08-5.93.05-8.88a7.26,7.26,0,0,1,1.13-2.42c.56.85,1.56,1.68,1.6,2.56.2,3.78.13,7.57.12,11.36,0,2.63,0,5.27-.22,7.89-.05.6-.91,1.15-1.4,1.72-.41-.62-1.16-1.23-1.18-1.86-.12-3.45-.05-6.91-.05-10.37Z"/></g></g></g></svg>