<svg xmlns="http://www.w3.org/2000/svg" viewBox="0 0 582.5 121.81"><defs><style>.cls-1{fill:#cecece;}</style></defs><g id="Capa_2" data-name="Capa 2"><g id="Capa_1-2" data-name="Capa 1"><g id="XkCidm.tif"><path class="cls-1" d="M171.56,72q0-20.79,0-41.6c0-5.4,0-5.42,5.59-5.43,12.29,0,24.59-.23,36.88.1,7.9.21,15.57,2.14,20.76,8.64a22.33,22.33,0,0,1,4.8,17.3c-.65,5.33-2.09,10-5.91,13.74a33,33,0,0,1-4,2.88c-2.82,2.06-2.7,3.56.46,5.27,3.77,2,7.49,3.92,9.68,8.06a27.42,27.42,0,0,1,2.1,22.14c-2.86,9.14-9.62,13.41-18.15,15.65A44.72,44.72,0,0,1,213,120.1c-12.12.16-24.25.07-36.38.05-4.89,0-5.07-.16-5.08-5C171.54,100.75,171.56,86.39,171.56,72Zm33,28.41v-.08a80.46,80.46,0,0,0,9.45-.08c3.07-.36,6.11-1,7.55-4.61,3.23-8.13.12-14-8.59-14.68-5.78-.48-11.62-.15-17.42-.24-2.26,0-3.36.86-3.32,3.22q.12,6.67,0,13.36c0,2.36,1.08,3.2,3.35,3.13C198.55,100.36,201.54,100.43,204.53,100.43Zm-1.68-55.85v.15c-2.49,0-5,0-7.46,0-2,0-3.15.86-3.16,2.93q0,6.68,0,13.35c0,1.47.53,2.72,2.23,2.69,6.11-.14,12.29.07,18.33-.72,4.74-.62,6.85-4.41,6.59-9.56-.24-4.61-2.92-7.69-7.6-8.31C208.83,44.72,205.83,44.74,202.85,44.58Z"/><path class="cls-1" d="M430,71.58q0-19.57,0-39.16a32.47,32.47,0,0,1,.08-4c.3-2.36,1.28-3.58,4.15-3.56,18.78.16,37.57.07,56.35.1,4.33,0,4.37.09,4.42,4.53q.06,6.2,0,12.39c0,3.76-.08,3.82-3.82,3.83-11.3,0-22.61,0-33.91,0-1.16,0-2.33.08-3.49,0-2.45-.18-3.17,1.07-3.11,3.3.1,3.3,0,6.61.06,9.91.1,3.56.26,3.7,4.21,3.73,7.48,0,15,0,22.44,0,3.33,0,6.65,0,10,0,1.75,0,2.73.37,2.78,2.43.11,4.75.57,9.5.67,14.26.06,2.73-2,2.91-4.17,2.9-9.8,0-19.61,0-29.42,0-1.16,0-2.33,0-3.49,0-2.06-.07-3,.83-3,2.94.06,3.14,0,6.28,0,9.42.06,4.69.09,4.73,4.72,4.75,11,0,21.94,0,32.91,0a24.83,24.83,0,0,0,3,0c2.68-.32,3.89.52,3.75,3.46-.21,4.62-.13,9.25,0,13.87.06,2.39-.48,3.55-3.27,3.54-19.28-.11-38.56-.08-57.84,0-2,0-3.07-.51-3.2-2.65-.12-2-.75-3.88-.76-5.82C429.94,98.34,430,85,430,71.58Z"/><path class="cls-1" d="M82.08,58.69c0-9.75,0-19.49,0-29.24,0-4.56-.7-4.45,4.65-4.46,4.32,0,8.64.07,13,0,2.28,0,3.41.88,3.39,3.18,0,1.81,0,3.63,0,5.45q.16,25.26.32,50.54c.1,14.47,14.32,19.58,24.06,13.6a13.12,13.12,0,0,0,4.18-4,24.66,24.66,0,0,0,3.8-13.53c-.15-16.85-.07-33.7-.05-50.55,0-4.66.05-4.68,4.53-4.71,4.32,0,8.65.14,13-.06,2.73-.13,3.8.61,3.72,3.52-.2,6.61-.06,13.22-.06,19.82,0,9.92-.1,19.83,0,29.74A56.67,56.67,0,0,1,151,103.71c-4.86,10-13.25,16.27-24.58,17.52-6.73.74-13.66,1.13-20.24-1-7.66-2.54-13.83-6.7-18.11-14.16-4.85-8.44-5.67-17.34-6-26.52C81.91,72.57,82.08,65.63,82.08,58.69Z"/><path class="cls-1" d="M328,119.9c-3.48,0-7.79,1.24-10.21-.35s-2.67-6-3.94-9.19c-1-2.53-1.51-5.91-3.42-7.28s-5.12-.44-7.77-.45c-7,0-14,.13-21-.07-2.95-.08-4.52.85-5.36,3.71-1.15,3.92-2.81,7.69-4,11.6a2.78,2.78,0,0,1-3.19,2.31c-5.15-.07-10.31,0-15.47-.06-3-.06-3.21-.4-2.22-3.17q6.81-19.2,13.66-38.39,6.8-19,13.65-37.95c1.49-4.15,3.17-8.25,4.42-12.47.79-2.68,2.1-3.71,4.93-3.57a89,89,0,0,0,13,0c3.33-.31,4.38,1.37,5.24,3.92q3.41,10,6.94,20,5.61,15.75,11.29,31.47c4.48,12.47,8.9,25,13.5,37.39.9,2.44.56,3.11-2.07,2.91s-5.32,0-8,0Zm-34-36.14h0c2.49,0,5,0,7.47,0,2-.05,3.2-.93,2.48-3.14q-4-12.18-8.07-24.34a2,2,0,0,0-1.35-1.16,1.81,1.81,0,0,0-1.4,1q-4.24,12.1-8.35,24.26c-.8,2.39.44,3.39,2.75,3.4Z"/><path class="cls-1" d="M516.68,25a26.67,26.67,0,0,0,5-.05c6-1.2,8.51,2.33,10.71,6.93C535.06,37.5,538,43,541,48.46c2.23,4.1,3.7,4.13,5.93.09,3.72-6.75,7.3-13.58,10.93-20.37,1-1.82,2-3.27,4.49-3.21,6,.13,12,0,17.95,0,2,0,1.61.55.8,1.95C573,41,565.05,55.2,557,69.3a4.33,4.33,0,0,0,0,5c6.68,11.51,13.22,23.09,19.82,34.64,1.71,3,3.42,6,5.21,9,.87,1.46.51,2.2-1.13,2.21-6.32,0-12.64.17-18.95-.07-1.09,0-2.49-1.44-3.12-2.56-3.85-6.9-7.52-13.89-11.26-20.85-.47-.87-.9-1.76-1.45-2.58-1.59-2.39-3.8-2.41-5.25.07-2.58,4.4-5,8.85-7.49,13.32-1.81,3.33-3.62,6.67-5.18,10.11-.79,1.73-1.76,2.63-3.71,2.62q-9-.08-17.95,0c-2,0-1.74-.92-1.05-2.12q7.06-12.39,14.15-24.79,5.26-9.18,10.61-18.31c2-3.34-.08-6.21-1.5-8.78-7.24-13.06-14.73-26-22.23-38.91-1-1.74-.86-2.3,1.17-2.27C510.7,25,513.69,25,516.68,25Z"/><path class="cls-1" d="M342.17,72.67a49.45,49.45,0,0,1,7.21-28.46c9.92-16.88,28.07-25.26,48.46-18.7,7.62,2.46,12.92,8.39,18,14.31,1.06,1.24,1.42,2.55-.08,3.88-4.19,3.72-8.3,7.54-12.56,11.2-.4.35-1.82.08-2.34-.38-1.83-1.6-3.31-3.59-5.2-5.11-8.18-6.56-23.63-5.63-29.47,7.8A37.29,37.29,0,0,0,366,87.38c3.1,7.39,8.71,12.26,16.88,12.58,5,.2,10.33-.4,14.12-4.7.76-.87,1.7-1.58,2.53-2.39,4-3.9,3.93-3.83,7.87-.1,2.75,2.59,5.72,5,8.64,7.37,1.39,1.15,1.41,1.91.31,3.58A40.85,40.85,0,0,1,400,118.38c-6,3-12.44,3.67-19.15,3.29a34.34,34.34,0,0,1-14.69-3.91c-7.94-4.26-13.69-10.6-17.94-18.32A49.35,49.35,0,0,1,342.17,72.67Z"/><path class="cls-1" d="M45.46,83.79c0,10.9-.07,21.8.06,32.7,0,2.76-.77,3.84-3.65,3.71-4.48-.2-9-.12-13.46,0-2.15,0-3-.84-2.93-2.91.05-1,0-2,0-3q0-30.47,0-60.95c0-.49,0-1,0-1.49-.06-5-.06-5-4.89-5-5,0-10,0-15,0C0,46.78,0,46.77,0,41c0-3.63,0-7.26,0-10.9,0-5,0-5,4.94-5.05q18.71,0,37.4,0c8,0,16,0,23.93,0,4.59,0,4.23-.26,4.22,4.38,0,4.3-.16,8.6.06,12.88.13,2.71-.9,4-3.51,4.11q-6.94.27-13.9.43c-8.26.17-7.68-1.25-7.69,7.75Q45.45,69.18,45.46,83.79Z"/><path class="cls-1" d="M296,0c7.9-.43,15.06,3.34,21.65,8.12,6.1,4.42,10.24,10.62,13.55,17.33a7.19,7.19,0,0,1,.29,2.16c-.53-.36-1.25-.6-1.57-1.09-6-9.23-15.16-14-25.42-16.49-14.25-3.47-27.23-.28-38.38,9.35-2.69,2.32-5,5.06-7.52,7.58a4.18,4.18,0,0,1-1.25.54,4.75,4.75,0,0,1,.11-1.32,42.63,42.63,0,0,1,14.3-18.53C279.1,2.09,286.5,0,296,0Z"/></g></g></g></svg>