<svg xmlns="http://www.w3.org/2000/svg" viewBox="0 0 96.62 109.19"><defs><style>.cls-1{fill:#fff;}</style></defs><g id="Capa_2" data-name="Capa 2"><g id="Capa_1-2" data-name="Capa 1"><path class="cls-1" d="M85.11,54.6H96V95.54a52.36,52.36,0,0,1-17.79,10.12,65.91,65.91,0,0,1-21.62,3.53,59.38,59.38,0,0,1-29-7A52.07,52.07,0,0,1,7.36,82.58,54.07,54.07,0,0,1,0,54.6a54.08,54.08,0,0,1,7.36-28A52.21,52.21,0,0,1,27.6,7.05,59.69,59.69,0,0,1,56.74,0,62.86,62.86,0,0,1,79.29,3.91,45,45,0,0,1,96.62,15.49L89.56,22.7Q76.82,10.12,57.2,10.12a48.24,48.24,0,0,0-23.54,5.75,42.27,42.27,0,0,0-16.48,16,44.16,44.16,0,0,0-6,22.78,43.73,43.73,0,0,0,6,22.69A43,43,0,0,0,33.59,93.24a47.2,47.2,0,0,0,23.46,5.83q16.56,0,28.06-8.28Z"/></g></g></svg>